<svg viewBox="220.56 301.126 1047.094 153.98" xmlns="http://www.w3.org/2000/svg"><g stroke="#fff"><path fill="#fff" d="m254.08 329.45c.89-.02 1.76-.36 3.78-1.26 2.03-.9 3.36-1.71 6.35-3.24s4.93-2.65 8.59-4.39c3.67-1.73 5.84-2.66 9.73-4.29 3.9-1.63 5.99-2.49 9.73-3.85s5.65-2.01 9-2.94c3.34-.94 4.99-1.24 7.73-1.74s3.97-.72 5.97-.75c2-.02 2.78.1 4.03.61s1.6.83 2.22 1.95c.61 1.12.67 1.81.84 3.65s.1 2.92.01 5.54c-.09 2.63-.06 4.17-.46 7.6-.41 3.44-.68 5.4-1.55 9.57-.87 4.18-1.4 6.5-2.78 11.3-1.38 4.79-2.22 7.42-4.12 12.69-1.9 5.28-2.97 8.09-5.38 13.69s-3.78 8.6-6.67 14.33-4.48 8.76-7.78 14.32-5.08 8.39-8.73 13.48-5.64 7.61-9.52 11.97-5.96 6.47-9.88 9.83c-3.91 3.36-5.95 4.78-9.68 6.97-3.73 2.18-5.66 2.98-8.97 3.96-3.32.97-4.91 1.07-7.6.92-2.7-.15-3.9-.53-5.9-1.69-2-1.17-2.89-2.16-4.11-4.12-1.21-1.97-1.67-3.23-1.97-5.7-.29-2.47-.29-3.9.48-6.67.78-2.76 1.42-4.31 3.39-7.16 1.98-2.85 3.32-4.38 6.47-7.09 3.16-2.71 5.17-4.07 9.33-6.47 4.15-2.39 6.6-3.49 11.44-5.52 4.84-2.02 7.57-2.91 12.76-4.6 5.19-1.7 7.86-2.43 13.21-3.86 5.34-1.44 8.17-2.01 13.53-3.31s8.22-1.93 13.26-3.17c5.05-1.25 7.49-1.88 11.96-3.06 4.46-1.17 6.6-1.78 10.38-2.83 3.79-1.04 5.61-1.49 8.54-2.39s4.21-1.33 6.11-2.1c1.9-.78 2.56-1.17 3.4-1.79.85-.61.93-.89.81-1.3s-.51-.7-1.41-.76c-.89-.05-1.63-.09-3.07.48s-2.37 1.1-4.12 2.37-2.74 2.11-4.61 3.98c-1.88 1.88-2.87 3.01-4.75 5.4-1.87 2.4-2.91 3.9-4.61 6.56-1.69 2.67-2.66 4.18-3.86 6.79s-1.68 4.02-2.11 6.26c-.44 2.24-.51 3.34-.06 4.95.45 1.62.99 2.37 2.32 3.15 1.32.77 2.35 1 4.31.71 1.96-.28 3.23-.71 5.48-2.12 2.24-1.41 3.38-2.61 5.74-4.92 2.35-2.32 3.69-3.84 6.03-6.66s3.54-4.5 5.68-7.45c2.14-2.94 3.3-4.56 5-7.28 1.71-2.73 2.72-4.26 3.53-6.36s.84-3.22.52-4.15c-.31-.93-.97-1.05-2.1-.51-1.13.53-2.14 1.29-3.56 3.19s-2.33 3.54-3.53 6.32c-1.2 2.79-1.8 4.7-2.47 7.6-.66 2.91-.9 4.43-.85 6.93s.19 3.7 1.1 5.59c.91 1.88 1.65 2.81 3.44 3.84s3.01 1.35 5.51 1.32c2.5-.02 4.03-.36 6.99-1.45 2.95-1.09 4.54-2.04 7.8-4 3.27-1.96 5.07-3.25 8.52-5.8 3.46-2.55 5.33-4.15 8.74-6.95 3.42-2.79 5.16-4.39 8.35-7.01 3.18-2.62 4.77-3.98 7.58-6.09 2.82-2.11 4.22-3.05 6.5-4.47 2.29-1.41 3.22-2 4.91-2.62 1.69-.63 2.35-.67 3.54-.5 1.18.16 1.58.45 2.38 1.31.79.86 1.05 1.52 1.59 3.01.54 1.48.83 2.46 1.1 4.42.28 1.95.41 3.13.29 5.35s-.25 3.49-.89 5.76c-.64 2.26-1.14 3.45-2.33 5.57-1.18 2.12-1.96 3.2-3.59 5.03-1.63 1.82-2.62 2.69-4.55 4.11s-3.16 2.02-5.1 3c-1.93.97-2.97 1.36-4.58 1.87-1.61.52-2.41.57-3.47.69s-1.46.07-1.81-.09c-.36-.15-.35-.26.02-.69.36-.44.64-.69 1.78-1.47 1.13-.77 1.94-1.31 3.89-2.41 1.96-1.11 3.21-1.78 5.9-3.12 2.68-1.34 4.23-2.11 7.54-3.57 3.31-1.45 5.26-2.22 9.01-3.71s5.84-2.28 9.73-3.73c3.88-1.45 5.93-2.15 9.71-3.53 3.77-1.39 5.74-2.12 9.15-3.4 3.42-1.28 5.14-1.86 7.91-3 2.76-1.14 4.03-1.67 5.92-2.7 1.9-1.03 2.68-1.51 3.56-2.43.89-.93 1.03-1.44.87-2.19-.15-.75-.59-1.2-1.63-1.56-1.05-.36-1.88-.51-3.59-.23s-2.86.63-4.97 1.63c-2.11.99-3.37 1.71-5.57 3.34-2.21 1.64-3.38 2.71-5.47 4.84-2.09 2.12-3.29 3.38-4.98 5.78-1.7 2.41-2.54 3.77-3.49 6.24-.95 2.46-1.23 3.82-1.27 6.08-.03 2.25.2 3.4 1.09 5.2.89 1.79 1.63 2.69 3.35 3.77s2.94 1.44 5.24 1.63 3.7.04 6.24-.69c2.55-.72 3.97-1.38 6.49-2.93s3.87-2.68 6.11-4.81c2.25-2.14 3.4-3.43 5.11-5.86 1.7-2.42 2.42-3.79 3.42-6.29.99-2.49 1.27-3.89 1.55-6.17s.15-3.39-.14-5.23c-.28-1.84-.71-2.71-1.28-3.95-.57-1.25-1.09-1.77-1.56-2.26-.47-.5-.88-.32-.8-.2.09.12.22.48 1.21.78s1.77.57 3.75.72c1.97.14 3.41.13 6.13 0s4.42-.45 7.48-.67 4.78-.37 7.83-.42c3.04-.06 4.74-.02 7.41.14 2.66.15 3.94.18 5.89.64s2.77.76 3.85 1.67 1.39 1.44 1.55 2.88c.15 1.43-.11 2.35-.78 4.3-.67 1.94-1.38 3.18-2.58 5.42-1.19 2.25-2.16 3.6-3.38 5.79-1.23 2.19-2.21 3.46-2.75 5.16-.54 1.71-.66 2.66.06 3.37.73.7 1.61.85 3.56.15 1.94-.69 3.29-1.78 6.17-3.64 2.89-1.86 4.76-3.46 8.25-5.67s5.66-3.57 9.21-5.36c3.54-1.8 5.56-2.61 8.52-3.62 2.96-1 4.32-1.25 6.26-1.41s2.59-.05 3.42.62c.84.66.78 1.24.76 2.72-.02 1.47-.48 2.57-.87 4.65-.38 2.08-.8 3.43-1.06 5.75-.26 2.31-.48 3.7-.22 5.82.25 2.12.45 3.24 1.5 4.8 1.05 1.55 1.81 2.23 3.73 2.97 1.93.74 3.25.98 5.88.71 2.63-.26 4.13-.83 7.28-2.04 3.15-1.2 5.27-2.35 8.48-3.98s5.13-2.58 7.58-4.19c2.44-1.62 3.84-2.89 4.64-3.88.79-1 .57-1.33-.66-1.09-1.24.24-2.9 1.05-5.5 2.3-2.6 1.24-4.36 2.4-7.52 3.92-3.15 1.51-5.3 2.56-8.25 3.66s-4.3 1.47-6.51 1.85-3.17.37-4.55.05c-1.39-.32-1.82-.61-2.37-1.66-.56-1.04-.48-1.83-.4-3.57.08-1.75.45-2.96.79-5.15.35-2.19.77-3.54.93-5.8s.35-3.6-.12-5.49c-.48-1.9-.84-2.86-2.25-3.97-1.4-1.12-2.39-1.55-4.77-1.61s-3.92.26-7.11 1.31c-3.18 1.04-5.15 2.1-8.82 3.93s-5.89 3.14-9.53 5.23c-3.64 2.08-5.8 3.34-8.66 5.2s-4.19 2.9-5.65 4.09c-1.45 1.18-1.68 1.74-1.62 1.84.06.09.8-.2 1.92-1.37s2.24-2.36 3.67-4.48c1.44-2.12 2.32-3.64 3.51-6.12 1.18-2.48 1.9-3.89 2.41-6.29.51-2.41.62-3.72.14-5.73-.49-2.01-1.09-2.92-2.54-4.3-1.46-1.39-2.51-1.88-4.75-2.64-2.25-.76-3.65-.92-6.49-1.17s-4.58-.1-7.71-.08c-3.12.02-4.86.14-7.93.18-3.08.04-4.77 0-7.45.02-2.69.02-4.01-.01-5.98.1-1.96.11-2.67.1-3.84.45-1.17.34-1.52.63-2.01 1.28s-.53 1.07-.44 1.97c.08.9.49 1.37.88 2.53.4 1.16.88 1.75 1.1 3.28s.29 2.42-.01 4.36-.56 3.16-1.5 5.34c-.93 2.18-1.61 3.37-3.18 5.55-1.57 2.17-2.61 3.41-4.67 5.31-2.07 1.9-3.41 2.83-5.66 4.2s-3.47 1.96-5.6 2.65c-2.12.69-3.25.79-5.04.79-1.8-.01-2.68-.16-3.93-.81s-1.74-1.19-2.33-2.45c-.58-1.26-.75-2.1-.6-3.86.15-1.77.41-2.88 1.35-4.95s1.74-3.25 3.34-5.39c1.61-2.14 2.72-3.37 4.68-5.29s3.08-2.89 5.12-4.29c2.03-1.41 3.2-1.89 5.06-2.75s2.87-1 4.25-1.55c1.37-.55 1.94-.78 2.62-1.18.67-.4.85-.72.74-.81-.12-.09-.33-.05-1.31.33-.97.39-1.7.78-3.58 1.61-1.88.82-3.12 1.36-5.82 2.54s-4.33 1.98-7.67 3.36c-3.35 1.38-5.3 2.13-9.05 3.55-3.75 1.41-5.8 2.1-9.71 3.53-3.9 1.42-6.01 2.19-9.81 3.59s-5.76 2.13-9.18 3.42c-3.43 1.28-5.07 1.82-7.93 3.01-2.87 1.18-4.28 1.68-6.4 2.93-2.13 1.25-3.07 1.98-4.24 3.32-1.17 1.33-1.47 2.12-1.62 3.35-.15 1.24.11 1.99.89 2.82.77.83 1.52 1.14 2.99 1.34 1.48.21 2.46.11 4.39-.34 1.92-.44 3.06-.84 5.24-1.87s3.51-1.7 5.66-3.27c2.14-1.58 3.24-2.57 5.07-4.61 1.82-2.05 2.7-3.23 4.05-5.61s1.94-3.72 2.71-6.28c.77-2.57.98-4 1.15-6.54s.1-3.88-.3-6.16c-.4-2.27-.77-3.43-1.68-5.2s-1.52-2.58-2.86-3.65-2.12-1.43-3.83-1.7c-1.72-.27-2.64-.24-4.72.35s-3.25 1.08-5.69 2.6-3.69 2.73-6.49 4.99-4.35 3.65-7.51 6.32c-3.16 2.66-4.9 4.26-8.31 7.01s-5.28 4.32-8.72 6.74c-3.44 2.41-5.27 3.62-8.48 5.33-3.2 1.72-4.84 2.32-7.54 3.26-2.71.94-3.98 1.24-5.99 1.44-2.02.2-2.82.17-4.09-.43s-1.74-1.16-2.26-2.55c-.53-1.39-.58-2.33-.37-4.41.21-2.09.56-3.44 1.4-6.01.85-2.56 1.69-4.25 2.84-6.83 1.16-2.58 2.06-4.05 2.94-6.07s1.24-3.04 1.45-4.02c.2-.98.08-1.3-.43-.88-.52.41-1.04 1.14-2.16 2.95s-1.81 3.41-3.43 6.08c-1.61 2.66-2.6 4.37-4.66 7.25-2.06 2.89-3.28 4.52-5.63 7.17s-3.81 4.01-6.13 6.08c-2.31 2.07-3.52 2.97-5.43 4.28-1.92 1.32-2.79 1.77-4.14 2.3s-1.89.61-2.6.35c-.71-.25-.92-.56-.97-1.64s.12-1.91.73-3.76 1.15-3.11 2.32-5.5c1.18-2.39 1.94-3.94 3.56-6.45 1.62-2.52 2.72-3.93 4.54-6.14 1.83-2.21 2.82-3.24 4.6-4.91 1.78-1.66 2.74-2.3 4.32-3.41s2.44-1.35 3.6-2.14 1.68-1.12 2.2-1.81c.52-.68.63-1.22.4-1.63-.22-.41-.5-.53-1.53-.41-1.03.13-1.69.42-3.62 1.03-1.93.62-3.16 1.06-6.03 2.04-2.87.99-4.6 1.69-8.32 2.89-3.72 1.19-5.83 1.84-10.26 3.09-4.43 1.26-6.85 1.9-11.88 3.19-5.02 1.29-7.87 1.93-13.23 3.25s-8.19 1.9-13.57 3.33c-5.37 1.43-8.05 2.16-13.3 3.83-5.25 1.68-8 2.55-12.94 4.55s-7.44 3.07-11.75 5.46-6.41 3.72-9.8 6.48c-3.4 2.77-4.9 4.3-7.15 7.34s-3.14 4.71-4.12 7.87-1.15 4.94-.78 7.92c.36 2.98 1.02 4.59 2.6 6.98 1.58 2.38 2.8 3.57 5.3 4.94s4.06 1.82 7.18 1.92 4.87-.25 8.41-1.43 5.48-2.11 9.3-4.47c3.83-2.37 5.86-3.87 9.81-7.35 3.95-3.49 6.04-5.64 9.93-10.09 3.9-4.45 5.89-7 9.56-12.14 3.67-5.15 5.46-8 8.79-13.59 3.33-5.6 4.93-8.65 7.86-14.4 2.93-5.76 4.32-8.75 6.8-14.37 2.47-5.62 3.58-8.43 5.57-13.72s2.88-7.92 4.39-12.73c1.52-4.81 2.12-7.14 3.19-11.34 1.06-4.2 1.47-6.15 2.13-9.66.66-3.52 1.03-5.08 1.17-7.9s-.01-4.05-.47-6.21c-.46-2.15-.79-3.08-1.84-4.56-1.05-1.47-1.72-2.03-3.41-2.83-1.68-.79-2.68-1.03-4.99-1.14-2.32-.11-3.68.04-6.59.6-2.9.56-4.52 1.13-7.92 2.2-3.41 1.08-5.31 1.76-9.09 3.17-3.78 1.4-5.87 2.27-9.83 3.84-3.95 1.57-6.16 2.42-9.94 4.02s-5.88 2.46-8.94 3.97c-3.05 1.51-4.47 2.31-6.33 3.58-1.86 1.26-2.52 1.99-2.98 2.77s-.21 1.16.68 1.14"/><path fill="#fff" d="m685.62 334.36c-.46.31-.61.53-1.19 1.78s-.96 2.04-1.7 4.46c-.73 2.42-.92 4.07-1.97 7.64s-1.73 5.82-3.26 10.19c-1.54 4.38-2.54 6.96-4.41 11.69-1.87 4.72-3.01 7.32-4.95 11.94-1.95 4.62-3.02 7.06-4.75 11.16-1.74 4.09-2.71 6.13-3.94 9.31-1.23 3.19-1.83 4.65-2.22 6.62s-.25 2.76.27 3.23c.53.47 1.25.36 2.34-.89 1.09-1.26 1.73-2.45 3.14-5.39 1.4-2.94 1.99-5.17 3.89-9.3s3.15-6.7 5.6-11.35c2.46-4.65 3.89-7.23 6.69-11.89 2.79-4.67 4.37-7.1 7.29-11.44s4.46-6.5 7.3-10.28c2.85-3.78 4.25-5.62 6.93-8.61 2.67-3 4.12-4.32 6.46-6.38 2.35-2.05 3.62-2.87 5.27-3.89 1.65-1.03 2.22-1.4 2.99-1.23s.81.53.84 2.08c.04 1.55-.21 2.8-.68 5.68-.48 2.87-.76 4.9-1.68 8.68s-1.67 6.11-2.92 10.22c-1.25 4.1-2.13 6.46-3.33 10.31s-1.95 5.83-2.68 8.93-1.05 4.55-.95 6.58c.11 2.04.43 2.88 1.49 3.61s1.99.82 3.81.06c1.81-.76 2.93-1.61 5.27-3.87 2.34-2.25 3.57-4.12 6.44-7.41 2.88-3.28 4.63-5.33 7.93-9.01 3.3-3.67 5.17-5.84 8.56-9.37 3.4-3.53 5.27-5.42 8.42-8.25 3.15-2.84 4.84-4.03 7.35-5.93s3.64-2.61 5.2-3.57c1.57-.95 2.04-1.25 2.62-1.2.59.05.55.28.3 1.47s-.72 2.05-1.53 4.5c-.81 2.46-1.17 4.23-2.5 7.77-1.33 3.55-2.3 5.78-4.15 9.97s-3.12 6.63-5.1 10.98c-1.99 4.36-3.18 6.72-4.84 10.8s-2.51 6.12-3.47 9.61c-.97 3.5-1.36 5.13-1.34 7.87.03 2.74.39 3.99 1.46 5.83 1.06 1.84 1.92 2.58 3.86 3.38 1.95.81 3.24.95 5.87.64 2.62-.32 4.15-.9 7.24-2.2 3.1-1.31 4.82-2.37 8.24-4.32 3.41-1.95 5.35-3.2 8.85-5.43 3.5-2.24 5.38-3.54 8.65-5.76 3.27-2.21 4.91-3.41 7.71-5.33 2.8-1.91 4.18-2.75 6.28-4.24 2.11-1.48 3-2.1 4.24-3.2s1.61-1.5 1.96-2.3.23-1.17-.22-1.7-1-.87-2.02-.96c-1.01-.09-1.79.01-3.06.51-1.28.5-1.96 1.06-3.29 1.99s-1.99 1.46-3.35 2.66c-1.37 1.21-2.15 1.89-3.48 3.38-1.32 1.49-2.04 2.38-3.16 4.08-1.11 1.71-1.61 2.66-2.41 4.44-.79 1.78-1.26 2.75-1.56 4.47-.31 1.71-.34 2.66.04 4.08.37 1.42.77 2.18 1.81 3.02 1.04.85 1.79 1.13 3.4 1.21s2.65-.06 4.66-.81c2.01-.74 3.18-1.41 5.4-2.9 2.22-1.5 3.45-2.59 5.69-4.55 2.25-1.96 3.44-3.14 5.53-5.25 2.09-2.1 3.28-3.2 4.93-5.29 1.64-2.08 2.58-3.39 3.3-5.12.72-1.72.69-2.74.29-3.51-.41-.78-1.08-.88-2.32-.38-1.24.49-2.3 1.16-3.87 2.85-1.58 1.7-2.66 3.17-4.01 5.6-1.34 2.44-1.95 4.08-2.72 6.58-.76 2.49-1.13 3.77-1.1 5.88.02 2.11.24 3.18 1.22 4.67s1.81 2.13 3.69 2.78c1.89.65 3.13.81 5.73.47 2.61-.35 4.18-.92 7.32-2.21 3.14-1.28 4.95-2.33 8.4-4.23 3.45-1.89 5.34-3.1 8.83-5.24 3.5-2.13 5.38-3.38 8.66-5.43s5.05-3.09 7.75-4.81 3.96-2.54 5.77-3.79c1.8-1.25 2.49-1.77 3.25-2.47s.79-.92.54-1.02c-.24-.11-.82-.03-1.77.5-.94.53-1.65 1-2.97 2.16-1.31 1.15-2.11 2.01-3.6 3.61-1.49 1.61-2.36 2.58-3.87 4.41-1.5 1.83-2.41 2.83-3.65 4.73-1.24 1.89-1.84 2.92-2.56 4.75-.72 1.84-1.01 2.75-1.04 4.43-.02 1.69.08 2.64.92 4 .83 1.35 1.59 2.01 3.27 2.79 1.69.78 2.75 1.06 5.16 1.09s3.89-.16 6.89-.94c3-.77 4.66-1.45 8.11-2.95 3.44-1.5 5.26-2.47 9.1-4.55 3.84-2.07 5.94-3.22 10.1-5.82 4.16-2.59 6.36-4.08 10.7-7.15 4.34-3.08 6.65-4.8 11-8.21 4.34-3.42 6.64-5.29 10.72-8.88 4.07-3.6 6.13-5.54 9.66-9.1 3.54-3.56 5.23-5.45 8.02-8.72 2.8-3.28 4.06-4.82 5.95-7.65 1.9-2.84 2.68-4.16 3.52-6.53.85-2.37.94-3.49.73-5.32-.2-1.83-.6-2.67-1.75-3.83s-2.06-1.69-4.02-1.96c-1.96-.26-3.26-.27-5.77.65-2.51.91-3.9 1.73-6.78 3.91s-4.43 3.6-7.63 6.98c-3.19 3.38-4.96 5.44-8.35 9.91-3.4 4.48-5.26 7.12-8.62 12.47-3.37 5.35-5.09 8.39-8.22 14.28s-4.71 9.14-7.42 15.16c-2.72 6.02-3.97 9.26-6.16 14.94s-3.14 8.57-4.79 13.46-2.35 7.25-3.48 11.01c-1.14 3.75-1.77 5.39-2.2 7.77-.42 2.39-.27 3.32.06 4.14.33.83.91.77 1.59-.01.68-.77 1.26-1.73 1.81-3.86.54-2.13.75-3.84.91-6.79s-.05-4.88-.11-7.96c-.07-3.07.01-4.66-.21-7.42-.22-2.77-.46-4.12-.9-6.41s-.84-3.37-1.3-5.05-.85-2.27-1-3.35c-.15-1.09-.22-1.42.25-2.07.46-.66.72-.74 2.09-1.22 1.37-.47 2.31-.49 4.76-1.14 2.44-.66 4.06-1.23 7.45-2.14 3.4-.9 5.42-1.37 9.51-2.38 4.1-1.01 6.43-1.59 10.95-2.67 4.51-1.08 7.03-1.66 11.65-2.71s7.09-1.54 11.46-2.53 6.59-1.55 10.38-2.42c3.8-.88 5.66-1.2 8.58-1.96s4.22-1.1 6.02-1.84c1.81-.74 2.45-1.1 3.01-1.85.57-.75.48-1.31-.16-1.92-.64-.62-1.46-1.04-3.04-1.15-1.59-.12-2.67 0-4.89.58-2.22.57-3.62 1.04-6.21 2.29-2.6 1.25-4.1 2.13-6.75 3.96-2.66 1.83-4.1 3.01-6.53 5.18-2.42 2.17-3.81 3.39-5.61 5.69-1.8 2.29-2.59 3.62-3.39 5.78s-.96 3.31-.62 5c.34 1.7.91 2.55 2.31 3.48 1.39.93 2.5 1.18 4.68 1.15 2.18-.02 3.56-.27 6.2-1.28 2.65-1 4.11-1.98 7.01-3.73 2.89-1.75 4.48-2.92 7.46-5.03 2.97-2.11 4.67-3.4 7.43-5.53 2.75-2.14 4.49-3.34 6.35-5.16 1.87-1.82 2.5-2.95 2.97-3.95.48-1.01.15-1.28-.59-1.07s-1.73.72-3.11 2.12-2.58 2.67-3.79 4.89c-1.22 2.22-1.78 3.89-2.28 6.2-.5 2.32-.6 3.55-.23 5.39.38 1.84.79 2.69 2.11 3.82 1.33 1.14 2.38 1.61 4.51 1.86 2.14.25 3.5.1 6.17-.6 2.66-.7 4.15-1.49 7.16-2.9 3-1.41 4.73-2.41 7.86-4.15 3.13-1.73 4.86-2.82 7.79-4.52 2.94-1.69 4.55-2.55 6.88-3.94 2.32-1.4 3.45-2.16 4.75-3.02s1.67-1.24 1.74-1.28c.08-.04-.45.18-1.36 1.07-.91.88-1.77 1.76-3.19 3.36-1.41 1.59-2.38 2.8-3.87 4.61s-2.54 2.86-3.57 4.43c-1.03 1.58-1.46 2.46-1.57 3.45-.1.99.21 1.41 1.03 1.52.83.11 1.62-.16 3.09-.96 1.48-.8 2.43-1.55 4.31-3.03 1.88-1.49 2.91-2.61 5.09-4.39 2.18-1.77 3.42-2.81 5.81-4.48 2.38-1.67 3.7-2.44 6.1-3.85 2.41-1.42 3.63-2.09 5.92-3.22 2.28-1.13 3.35-1.56 5.5-2.44s3.12-1.19 5.24-1.97c2.12-.79 3.16-1.06 5.38-1.96 2.21-.9 3.28-1.28 5.69-2.52 2.41-1.25 3.68-1.97 6.34-3.72 2.67-1.75 4.1-2.79 6.97-5.03 2.88-2.25 4.45-3.56 7.41-6.19 2.96-2.62 4.59-4.1 7.41-6.94s4.29-4.46 6.69-7.25c2.4-2.78 3.66-4.17 5.32-6.67 1.67-2.5 2.33-3.77 3.01-5.83.67-2.06.79-3.1.36-4.47-.44-1.38-1.06-2.03-2.55-2.4-1.5-.37-2.67-.38-4.93.54s-3.54 1.83-6.37 4.06c-2.83 2.22-4.43 3.77-7.78 7.06s-5.39 5.29-8.97 9.37-5.6 6.5-8.94 11.04-5.1 7.08-7.77 11.65-3.92 6.97-5.57 11.2-2.28 6.36-2.68 9.96c-.4 3.59-.33 5.32.67 8.03 1 2.7 2.01 3.93 4.33 5.48 2.31 1.54 3.94 2 7.24 2.24s5.28-.16 9.27-1.04c3.98-.88 6.26-1.69 10.67-3.35 4.41-1.65 6.88-2.8 11.36-4.92 4.49-2.11 6.92-3.42 11.06-5.64s6.25-3.48 9.64-5.47c3.4-2 5.08-2.84 7.35-4.49 2.27-1.64 3.09-2.46 4.02-3.73.94-1.27.99-1.84.65-2.62s-.99-1.15-2.37-1.26-2.44-.02-4.52.71c-2.08.72-3.45 1.37-5.88 2.91-2.43 1.55-3.76 2.72-6.28 4.83-2.51 2.11-3.94 3.39-6.3 5.74s-3.74 3.67-5.5 6.02c-1.76 2.36-2.5 3.65-3.3 5.76-.8 2.1-.98 3.21-.71 4.78.27 1.56.74 2.26 2.04 3.05 1.31.79 2.36 1.06 4.48.89 2.13-.16 3.56-.53 6.16-1.71 2.59-1.18 4.01-2.3 6.82-4.19 2.82-1.89 4.43-3.06 7.24-5.24 2.82-2.19 4.46-3.49 6.84-5.66s3.75-3.48 5.05-5.19c1.3-1.72 1.49-2.69 1.44-3.38-.06-.69-.68-.68-1.7-.08-1.02.61-2.11 1.44-3.41 3.12s-2.27 3.14-3.1 5.3c-.84 2.16-1.08 3.58-1.06 5.51.02 1.94.22 2.86 1.15 4.16.92 1.3 1.64 1.85 3.46 2.33 1.83.48 3.08.62 5.67.08 2.59-.53 4.12-1.27 7.27-2.74 3.15-1.48 4.96-2.64 8.47-4.65 3.52-2 5.54-3.27 9.11-5.37 3.56-2.11 5.59-3.36 8.74-5.14 3.14-1.78 4.96-2.63 6.99-3.76s2.68-1.7 3.15-1.89.08 0-.8.94c-.87.94-1.91 1.86-3.59 3.74-1.67 1.88-2.88 3.39-4.79 5.65-1.9 2.27-3.25 3.61-4.75 5.67s-2.28 3.14-2.76 4.63c-.48 1.48-.49 2.24.36 2.81.84.56 1.77.66 3.85.02 2.09-.64 3.58-1.57 6.56-3.21s4.84-3.02 8.34-4.98c3.5-1.95 5.62-3.15 9.15-4.79 3.52-1.63 5.53-2.37 8.47-3.38 2.94-1 4.31-1.31 6.22-1.64 1.9-.33 2.56-.37 3.31-.02.74.35.59.7.39 1.78-.19 1.07-.73 1.9-1.37 3.6-.63 1.69-1.26 2.84-1.78 4.87-.52 2.02-.93 3.31-.83 5.24.1 1.94.32 3 1.34 4.43 1.01 1.43 1.78 2.06 3.73 2.72 1.94.65 3.17.87 5.99.54 2.83-.33 4.62-.94 8.14-2.19 3.53-1.25 5.66-2.2 9.5-4.04 3.85-1.84 6.03-3.07 9.72-5.17 3.68-2.1 5.66-3.28 8.71-5.32 3.04-2.05 4.65-3.04 6.52-4.9 1.86-1.87 2.47-2.95 2.79-4.44.32-1.48-.02-2.32-1.21-2.99-1.18-.67-2.39-.89-4.7-.36-2.32.54-4.05 1.31-6.88 3.03s-4.61 3.11-7.27 5.58c-2.67 2.46-4.33 3.99-6.05 6.74s-2.48 4.35-2.55 7.01c-.07 2.65.4 4.16 2.19 6.26 1.8 2.09 3.36 2.97 6.78 4.23 3.41 1.26 5.7 1.57 10.31 2.06s7.9.39 12.73.39c4.84-.01 7.62-.1 11.46-.41 3.84-.32 6.22-.69 7.75-1.17s1.47-1.02-.1-1.23c-1.58-.22-3.94.06-7.76.14s-6.58.31-11.34.26c-4.75-.04-8.03.05-12.45-.48s-6.57-1.06-9.64-2.18c-3.08-1.12-4.27-1.86-5.73-3.4-1.46-1.55-1.78-2.38-1.58-4.32.21-1.93.96-3.1 2.6-5.38s3.08-3.86 5.61-6.01c2.53-2.16 4.43-3.21 7.04-4.77 2.62-1.57 4.19-2.15 6.02-3.06 1.82-.9 2.49-1.32 3.12-1.45s.64.06.01.81c-.64.75-1.35 1.38-3.19 2.94s-3.13 2.82-6.02 4.87-4.82 3.31-8.42 5.37-5.79 3.25-9.58 4.94c-3.78 1.69-5.94 2.5-9.34 3.5s-5.16 1.15-7.66 1.51c-2.49.37-3.39.52-4.82.32-1.43-.21-1.83-.5-2.33-1.35-.5-.84-.43-1.44-.16-2.87.26-1.42.89-2.4 1.49-4.26s1.17-3.09 1.51-5.04c.33-1.95.51-3.13.16-4.72-.34-1.58-.62-2.36-1.9-3.22-1.29-.86-2.25-1.16-4.53-1.07-2.29.09-3.78.48-6.89 1.52-3.12 1.05-5.07 2.03-8.68 3.7-3.62 1.67-5.78 2.84-9.39 4.64-3.62 1.81-5.72 2.81-8.7 4.38-2.97 1.58-4.48 2.39-6.17 3.5-1.68 1.11-2.06 1.76-2.24 2.04-.19.27.3.13 1.32-.67s2.01-1.6 3.78-3.35 3.09-3.12 5.08-5.4c1.98-2.27 3.41-3.7 4.84-5.96 1.43-2.27 2.04-3.69 2.3-5.35s.12-2.44-1.01-2.97c-1.12-.52-2.24-.51-4.6.36-2.35.87-4.01 2.14-7.17 4-3.17 1.87-5.11 3.24-8.66 5.34-3.56 2.1-5.6 3.32-9.12 5.17-3.52 1.84-5.43 2.79-8.48 4.04s-4.53 1.62-6.76 2.21c-2.23.6-3.11.76-4.4.75-1.29-.02-1.68-.16-2.06-.82-.39-.66-.33-1.19.14-2.49s1.24-2.21 2.2-4.01c.97-1.8 1.83-3.14 2.63-4.98.79-1.85 1.21-3.07 1.34-4.25.14-1.18.08-1.68-.66-1.64s-1.42.5-3.04 1.84c-1.61 1.35-2.74 2.77-5.05 4.87-2.31 2.11-3.76 3.56-6.5 5.66-2.73 2.09-4.39 3.18-7.16 4.83s-4.34 2.32-6.69 3.42-3.45 1.57-5.06 2.08c-1.62.5-2.25.62-3.01.45-.76-.16-.89-.34-.79-1.28.1-.93.36-1.73 1.29-3.39.92-1.66 1.64-2.76 3.32-4.91 1.67-2.14 2.81-3.58 5.05-5.81s3.66-3.48 6.15-5.34 3.98-2.61 6.31-3.96 3.58-1.84 5.33-2.78c1.74-.95 2.49-1.36 3.4-1.93s1.19-.91 1.14-.94c-.05-.02-.27.08-1.4.81s-2.03 1.29-4.26 2.83-3.62 2.77-6.88 4.87-5.35 3.39-9.42 5.63c-4.07 2.25-6.49 3.55-10.93 5.6-4.43 2.06-6.91 3.16-11.25 4.69-4.33 1.53-6.62 2.22-10.41 2.95-3.79.72-5.64.86-8.54.68-2.91-.17-4.14-.42-6.01-1.56-1.86-1.14-2.52-1.93-3.34-4.14-.81-2.2-1.03-3.62-.73-6.89.3-3.28.74-5.39 2.24-9.48s2.69-6.49 5.27-10.98c2.58-4.5 4.33-7.03 7.65-11.48 3.32-4.46 5.33-6.85 8.95-10.79 3.61-3.95 5.68-5.91 9.11-8.95 3.43-3.05 5.25-4.32 8.04-6.27 2.79-1.96 4.08-2.5 5.93-3.52 1.84-1.02 2.45-1.4 3.29-1.58.85-.18.96-.09.92.66s-.3 1.45-1.13 3.1-1.45 2.79-3.01 5.15c-1.57 2.37-2.56 3.89-4.81 6.66s-3.7 4.39-6.45 7.18c-2.76 2.78-4.38 4.23-7.32 6.76s-4.53 3.78-7.4 5.88-4.33 3.01-6.96 4.62c-2.63 1.6-3.88 2.21-6.19 3.4s-3.25 1.64-5.38 2.55c-2.12.91-3.12 1.2-5.23 2-2.12.8-3.11 1.12-5.32 2-2.22.88-3.36 1.28-5.75 2.4s-3.69 1.78-6.2 3.21c-2.51 1.42-3.83 2.27-6.36 3.9-2.52 1.62-3.9 2.56-6.25 4.23s-3.63 2.54-5.49 4.1c-1.86 1.55-2.77 2.39-3.81 3.67-1.05 1.28-1.35 2.06-1.42 2.72s.25.84 1.05.56 1.53-.78 2.96-1.97c1.42-1.19 2.52-2.2 4.14-3.99s2.75-3.02 3.97-4.96c1.21-1.94 1.77-3.18 2.09-4.73.33-1.56.29-2.37-.46-3.04-.75-.68-1.55-.75-3.3-.34-1.76.42-3.03 1.08-5.47 2.42s-3.84 2.54-6.73 4.29c-2.88 1.75-4.6 2.82-7.7 4.45-3.09 1.64-4.87 2.51-7.78 3.73-2.92 1.22-4.43 1.69-6.79 2.38s-3.39.97-5.03 1.07c-1.63.09-2.32-.03-3.14-.59-.81-.56-.98-.98-.93-2.21.06-1.23.38-2.14 1.21-3.92.83-1.79 1.8-3 2.92-5.03s1.95-3.37 2.67-5.13c.73-1.76 1.07-2.77.95-3.66-.12-.9-.39-1.19-1.53-.82-1.15.37-2.15 1.04-4.17 2.64-2.03 1.61-3.33 3.21-5.97 5.38s-4.3 3.47-7.23 5.48c-2.92 2.01-4.58 3.06-7.4 4.58-2.83 1.53-4.36 2.11-6.73 3.04s-3.45 1.27-5.13 1.61c-1.67.33-2.36.4-3.24.07-.89-.33-1.15-.68-1.16-1.73-.02-1.04.19-1.84 1.08-3.5s1.66-2.77 3.35-4.81c1.69-2.05 2.85-3.38 5.11-5.41 2.27-2.03 3.68-3.16 6.23-4.75 2.54-1.59 4.05-2.18 6.49-3.19 2.44-1.02 3.75-1.27 5.72-1.88 1.97-.62 2.85-.75 4.13-1.19 1.29-.44 1.87-.71 2.29-1.02.42-.32.47-.56-.19-.58-.67-.02-1.31.06-3.12.47-1.82.42-3.09.81-5.96 1.62s-4.66 1.42-8.4 2.44c-3.74 1.01-5.95 1.59-10.3 2.62-4.34 1.04-6.81 1.54-11.43 2.57-4.63 1.04-7.15 1.61-11.69 2.6-4.53.99-6.86 1.53-11 2.36-4.13.82-6.17 1.12-9.66 1.79-3.48.67-5.19.82-7.76 1.55s-3.51 1.13-5.08 2.09-2.04 1.48-2.76 2.71c-.71 1.23-.78 1.97-.8 3.44-.03 1.47.33 2.14.67 3.9.35 1.77.73 2.72 1.05 4.91.33 2.2.48 3.44.59 6.09s.12 4.19-.03 7.16c-.15 2.98-.5 4.85-.71 7.72s-.39 4.5-.34 6.62c.05 2.13.27 3.11.6 4s.56 1.1 1.06.46.79-1.39 1.42-3.68.77-4.01 1.72-7.77c.95-3.77 1.53-6.15 3.05-11.05s2.44-7.78 4.57-13.45c2.13-5.66 3.37-8.89 6.06-14.88s4.27-9.23 7.4-15.06c3.14-5.83 4.87-8.84 8.27-14.1s5.29-7.86 8.73-12.19c3.45-4.32 5.26-6.32 8.51-9.44 3.24-3.12 4.92-4.31 7.72-6.15 2.79-1.85 4.14-2.26 6.26-3.08 2.13-.82 2.96-.96 4.36-1.03s1.92.08 2.64.68c.72.61.97 1.03.97 2.34.01 1.31-.14 2.13-.95 4.2-.82 2.06-1.4 3.35-3.11 6.11-1.71 2.75-2.81 4.38-5.45 7.66-2.64 3.29-4.29 5.19-7.74 8.75-3.45 3.57-5.48 5.5-9.5 9.08-4.03 3.58-6.32 5.43-10.64 8.8-4.33 3.38-6.64 5.08-10.98 8.08-4.33 3-6.54 4.45-10.7 6.93-4.16 2.49-6.27 3.58-10.1 5.48-3.84 1.9-5.68 2.78-9.07 4.01s-5.07 1.54-7.86 2.14c-2.8.59-4.09.74-6.12.85-2.03.1-2.79-.01-4.03-.34-1.24-.34-1.67-.6-2.17-1.36-.5-.75-.49-1.26-.32-2.41s.43-1.86 1.18-3.33 1.32-2.36 2.56-4.01c1.24-1.66 2.12-2.6 3.63-4.26 1.52-1.66 2.43-2.53 3.95-4.04s2.47-2.17 3.63-3.52c1.17-1.36 1.71-2.11 2.18-3.27.47-1.15.53-1.88.17-2.5-.37-.63-.8-.84-2-.62-1.19.22-2.04.62-3.99 1.74-1.96 1.12-3.12 2.07-5.78 3.85-2.67 1.79-4.33 2.97-7.56 5.07-3.22 2.1-5.1 3.35-8.59 5.42-3.48 2.07-5.39 3.23-8.81 4.94-3.43 1.72-5.3 2.53-8.3 3.62-2.99 1.08-4.44 1.39-6.67 1.82-2.22.43-3.09.54-4.46.33-1.37-.2-1.84-.45-2.37-1.36-.54-.91-.59-1.6-.31-3.19.28-1.58.72-2.67 1.7-4.74.97-2.07 1.86-3.42 3.18-5.62 1.31-2.19 2.32-3.51 3.4-5.34 1.08-1.82 1.62-2.78 2-3.79.37-1 .3-1.4-.11-1.25-.42.14-.88.69-1.97 1.96-1.09 1.28-1.84 2.51-3.48 4.4-1.63 1.89-2.65 3.05-4.68 5.04-2.02 1.99-3.25 3.11-5.44 4.91s-3.47 2.73-5.49 4.1c-2.03 1.38-3.04 1.98-4.64 2.79-1.6.8-2.35 1.01-3.37 1.25-1.03.24-1.31.29-1.77-.05-.45-.34-.49-.75-.51-1.65-.03-.91 0-1.58.39-2.9.38-1.32.78-2.19 1.54-3.71.76-1.53 1.22-2.41 2.25-3.92s1.69-2.29 2.9-3.62c1.21-1.34 1.9-2 3.14-3.05 1.25-1.04 1.88-1.46 3.08-2.18s1.93-.85 2.93-1.41c1.01-.55 1.52-.83 2.1-1.35s.77-.95.82-1.24c.04-.29-.01-.43-.59-.22-.59.21-.99.47-2.34 1.28-1.35.82-2.32 1.35-4.42 2.81-2.11 1.47-3.39 2.51-6.12 4.51s-4.32 3.25-7.55 5.49c-3.22 2.23-5.09 3.52-8.57 5.68-3.49 2.16-5.45 3.36-8.84 5.13-3.4 1.77-5.19 2.6-8.12 3.74s-4.32 1.52-6.53 1.96c-2.2.44-3.08.62-4.51.25-1.42-.38-1.94-.75-2.62-2.11s-.81-2.31-.77-4.69c.05-2.39.18-3.91 1.01-7.24.82-3.33 1.55-5.39 3.13-9.41s2.75-6.39 4.76-10.7c2.01-4.32 3.3-6.75 5.31-10.89 2-4.14 3.12-6.29 4.73-9.83 1.6-3.54 2.58-5.17 3.3-7.88.71-2.71.66-3.98.27-5.68-.39-1.69-.96-2.32-2.24-2.79-1.27-.47-2.16-.38-4.13.44-1.98.81-3.14 1.63-5.73 3.64-2.6 2.01-4.11 3.43-7.25 6.4-3.13 2.97-4.99 4.89-8.42 8.44-3.42 3.55-5.3 5.72-8.69 9.32s-5.24 5.59-8.27 8.68c-3.03 3.08-4.67 4.57-6.88 6.75-2.22 2.18-3.02 3.08-4.2 4.14-1.17 1.06-1.38 1.4-1.68 1.15-.3-.26-.12-.75.19-2.44.32-1.7.64-3.05 1.37-6.03s1.16-5.04 2.28-8.87c1.12-3.84 1.99-6.19 3.32-10.29 1.34-4.1 2.2-6.38 3.33-10.21 1.14-3.83 1.95-5.82 2.36-8.94.41-3.13.34-4.7-.3-6.69-.64-1.98-1.37-2.69-2.9-3.23-1.52-.54-2.59-.39-4.71.56-2.11.95-3.41 1.96-5.85 4.19s-3.71 3.77-6.34 6.94c-2.64 3.17-4.01 5.03-6.82 8.89-2.82 3.86-4.35 6.03-7.28 10.42-2.92 4.38-4.5 6.82-7.36 11.49-2.85 4.67-4.3 7.25-6.91 11.86-2.62 4.6-3.98 7.14-6.15 11.17s-3.35 6.04-4.7 8.99-1.69 4.24-2.06 5.77c-.37 1.54-.16 1.99.21 1.9.37-.1.84-.62 1.64-2.38s1.18-3.25 2.35-6.43c1.16-3.17 1.86-5.3 3.48-9.42 1.61-4.13 2.68-6.57 4.61-11.19 1.93-4.63 3.08-7.23 5.03-11.94s2.99-7.29 4.72-11.63c1.73-4.33 2.6-6.52 3.95-10.04s2.11-5.06 2.8-7.56c.68-2.49.55-3.49.6-4.91.05-1.41-.06-1.69-.36-2.17s-.67-.54-1.13-.24"/></g></svg>